<?xml version="1.0" encoding="utf-8"?>
<!-- Generator: Adobe Illustrator 16.0.0, SVG Export Plug-In . SVG Version: 6.00 Build 0)  -->
<!DOCTYPE svg PUBLIC "-//W3C//DTD SVG 1.1//EN" "http://www.w3.org/Graphics/SVG/1.1/DTD/svg11.dtd">
<svg version="1.1" id="Layer_1" xmlns="http://www.w3.org/2000/svg" xmlns:xlink="http://www.w3.org/1999/xlink" x="0px" y="0px"
	 width="986.56px" height="1024px" viewBox="0 0 986.56 1024" enable-background="new 0 0 986.56 1024" xml:space="preserve">
<g>
	<path d="M511.7,363.09H222.65c-37.285,0-67.625,29.615-67.625,65.985V762.2c0,36.38,30.34,65.97,67.625,65.97H454.72
		c-2.41-1.45-4.864-2.83-7.239-4.32c-17.945-11.189-26.966-32.189-23.125-52.8H222.65c-5.785,0-10.5-3.979-10.5-8.85V429.075
		c0-4.896,4.715-8.865,10.5-8.865H511.7c5.79,0,10.5,3.98,10.5,8.865V616.61c11.18-2.69,23.24-5.66,37.359-9.19l0.86-0.22
		c6.96-1.75,13.22-3.36,18.9-5V429.075C579.32,392.705,548.98,363.09,511.7,363.09z"/>
	<path d="M660.54,912.44c0,29.56-24.04,53.59-53.58,53.59H111.545c-29.545,0-53.575-24.04-53.575-53.59V251.925
		c0-29.555,24.04-53.585,53.575-53.585h53.595v53.585c0,15.995,12.985,28.98,28.98,28.98h330.26c16,0,28.99-12.985,28.99-28.98
		V198.34h53.59c29.54,0,53.57,24.04,53.57,53.585v57.385c5.859-3.399,11.96-6.585,18.45-9.42c8.119-3.564,15.76-5.979,22.51-8.1
		c2.37-0.76,4.77-1.495,7.12-2.305c3.21-1.096,6.529-1.761,9.88-2.21v-35.351c0-61.515-50.05-111.555-111.55-111.555H553.26
		c-1.02-46.42-49.56-82.575-111.455-82.575h-0.88C428.985,24.165,396.925,0,359.25,0s-69.735,24.165-81.695,57.795h-0.87
		c-61.89,0-110.439,36.155-111.449,82.575h-53.69C50.045,140.37,0,190.41,0,251.925V912.46C0,973.96,50.045,1024,111.545,1024
		H606.96c61.5,0,111.55-50.04,111.55-111.56V900.92c-19.58-0.38-38.92-1.72-57.96-4.01v15.53H660.54z M359.25,57.96
		c15.89,0,28.805,12.93,28.805,28.805c0,15.9-12.925,28.815-28.805,28.815s-28.805-12.925-28.805-28.815
		C330.445,70.89,343.36,57.96,359.25,57.96z M223.1,141.835c0-10.385,21.37-26.07,53.575-26.07h0.88
		c11.96,33.615,44.021,57.806,81.695,57.806s69.735-24.181,81.695-57.806h0.88c32.215,0,53.575,15.686,53.575,26.07v81.1H223.1
		V141.835z"/>
	<path d="M970.48,711.84c-3.32-12.439-11.25-21.359-22.24-26.62c-16-7.649-32.53-14.16-48.96-20.84
		c-9.561-3.91-19.2-7.96-29.141-10.64c-15.68-4.2-27.279-13.62-37.3-25.98c-3.52-4.35-7.609-8.77-12.37-11.439
		c-13.64-7.641-17.29-20.16-14.54-33.721c4.32-21.319,9.94-42.52,22.25-61.02c8.641-12.95,13.061-27.4,15.061-42.715
		c0.3-2.355,0.84-5.155-0.05-7.12c-9.44-20.795-6.07-43.16-6.881-64.726c-0.93-24.689-20.77-45.354-41.119-50.649
		c-14.921-3.9-29.32-8.54-41.57-18.44c-9.49,0-18.96,0-28.46,0c-8.54,2.92-17.391,5.245-25.62,8.851
		c-42.78,18.734-64.1,52.149-64.98,99.189c-0.199,10.5,0.601,21.105-0.43,31.5c-2.37,23.575,8.17,42.24,20.65,60.391
		c1.18,1.72,2.649,3.399,3.26,5.33c5.12,15.909,10.66,31.71,14.86,47.85c2.96,11.53,0.619,14.72-10.061,20.66
		c-3.62,2.02-7.72,3.74-10.42,6.72c-21.66,24.1-51.06,31.3-80.4,38.66c-19.8,4.96-39.579,9.84-59.46,14.45
		c-8.1,1.89-13.02,6.649-15,14.64c-7.739,31.4-15.564,62.771-23.029,94.24c69.729,43.42,158.85,69.51,256.01,69.51
		c97.15,0,186.32-26.1,256.02-69.55c-2.229-11.96-4.56-23.91-6.989-35.811C977.28,733.48,973.44,722.76,970.48,711.84z"/>
	<path d="M474.4,485.835c-3.04-4.535-9.125-5.925-13.795-3.1c-25.601,15.34-52.08,37.545-78.705,65.995
		c-21.4,22.869-39.896,46.609-55.141,70.739c-10.2-21.529-19.99-31.229-31.295-31.229c-12.01,0-24.075,6.93-36.854,21.14
		c-2.28,2.521-3.155,6.021-2.325,9.33s3.234,5.98,6.455,7.14c4.31,1.551,8.435,5.011,12.265,10.25
		c4.545,6.24,9.675,16.341,15.235,30.021l4.08,9.96c4.185,10.72,6.89,18.38,8.035,22.81c0.925,3.551,3.654,6.32,7.189,7.301
		c0.93,0.25,1.845,0.369,2.755,0.369c2.66,0,5.255-1.04,7.2-2.96c1.985-1.96,6.615-5.96,17.2-13.72l10.915-7.76
		c1.484-1.07,2.654-2.49,3.399-4.14c13.21-29.341,32.71-61.461,57.95-95.461c25.15-33.859,48.18-59.159,68.436-75.199
		c4.165-3.311,5.119-9.255,2.17-13.7L474.4,485.835z"/>
</g>
</svg>
